<svg xmlns="http://www.w3.org/2000/svg" width="260.112" height="28.223" viewBox="0 0 260.112 28.223">
  <g id="Grupo_1048" data-name="Grupo 1048" transform="translate(-70.867 -260.397)">
    <path id="Caminho_764" data-name="Caminho 764" d="M186.388,268.193v18.7H177.1v-18.7Zm-71.467,5.853c0,4.331,4.833,7.842,10.8,7.842a14.571,14.571,0,0,0,3.07-.321l-1.841-1.18,5.809-4,2.391,1.481a6.238,6.238,0,0,0,1.366-3.823c0-4.329-4.835-7.84-10.8-7.84S114.921,269.717,114.921,274.046Zm-9.91,0c0-7.537,9.269-13.649,20.707-13.649s20.7,6.112,20.7,13.649a10.99,10.99,0,0,1-4.175,8.223l3.355,2.08-5.809,4.271L135.711,286a29.334,29.334,0,0,1-9.994,1.692C114.28,287.7,105.011,281.585,105.011,274.046Zm52.444-5.851v10.412c0,2.227,1.226,3.362,3.72,3.362,2.45,0,3.674-1.135,3.674-3.362V268.195l9.081,0V279.86c0,4.861-5.633,7.453-12.755,7.453-7.164,0-12.838-2.59-12.838-7.452V268.195Zm24.187-7.573c2.743,0,4.938,1.474,4.938,3.319s-2.2,3.315-4.938,3.315-4.937-1.473-4.937-3.315S178.9,260.622,181.642,260.622Zm82.645,7.571v18.7H255v-18.7Zm-4.747-7.571c2.743,0,4.937,1.474,4.937,3.319s-2.195,3.315-4.937,3.315-4.936-1.473-4.936-3.315S256.8,260.622,259.539,260.622ZM195.86,286.9c-2.938,0-4.989-.818-4.989-4.295v-9.484H187.9v-4.924h2.975V263.9h9.285l0,4.295h3.352v4.924h-3.349l.007,6.831c0,1.9.992,1.72,3.342,1.72V286.9Zm79.181-9.4c0,2.553,2.394,4.618,5.346,4.618s5.343-2.066,5.343-4.618-2.392-4.618-5.343-4.618S275.042,274.945,275.042,277.495Zm-9.271,0c0-5.421,6.544-9.818,14.618-9.818s14.618,4.4,14.618,9.818-6.545,9.818-14.618,9.818S265.771,282.919,265.771,277.495Zm-40-1.682a7.192,7.192,0,0,0-12.112,0Zm-21.386,1.705c0-5.412,6.866-9.8,15.331-9.8s15.328,4.386,15.328,9.8a6.382,6.382,0,0,1-.19,1.546H213.591c.835,2.013,3.263,3.47,6.126,3.47a7.126,7.126,0,0,0,5.226-2.089l8.557,1.361c-2.489,3.261-7.726,5.507-13.784,5.507C211.252,287.313,204.385,282.929,204.385,277.518Zm41.242-9.326v3.314c1.7-2.479,4.19-3.544,8.4-3.544V274.6c-7.219-1.224-8.4,1.719-8.4,5.387v6.91h-9.287v-18.7Zm49.663,12.9h7.752a1.96,1.96,0,0,0,.861,1.68,3.574,3.574,0,0,0,2,.559c1.253,0,2.583-.352,2.583-1.645,0-2.937-12.566-.594-12.566-7.7,0-4.687,5.44-6.052,9.709-6.052,4.463,0,9.71.912,10.182,5.772h-7.4a1.864,1.864,0,0,0-.783-1.329,2.8,2.8,0,0,0-1.643-.456c-1.411,0-2.312.386-2.312,1.3,0,2.555,12.96.837,12.96,7.7,0,3.811-3.522,6.4-11.041,6.4C300.889,287.313,295.722,286.021,295.291,281.088Zm-75.14-20.594h7.373l-8.327,6.4h-3.973Z" transform="translate(3.816)" fill-rule="evenodd"/>
    <g id="Grupo_1047" data-name="Grupo 1047" transform="translate(322.109 267.267)">
      <path id="Caminho_765" data-name="Caminho 765" d="M305.721,270.893a4.436,4.436,0,1,1-4.395-4.317A4.348,4.348,0,0,1,305.721,270.893Zm-7.765,0a3.361,3.361,0,0,0,3.37,3.449,3.306,3.306,0,0,0,3.29-3.422,3.332,3.332,0,1,0-6.659-.027Zm2.659,2.238h-1v-4.317a11.557,11.557,0,0,1,1.659-.132,2.3,2.3,0,0,1,1.473.342,1.085,1.085,0,0,1,.447.922,1.114,1.114,0,0,1-.894,1.026v.052c.42.132.632.475.764,1.054a3.824,3.824,0,0,0,.315,1.053h-1.053a3.42,3.42,0,0,1-.341-1.053c-.08-.448-.342-.659-.9-.659h-.472Zm.026-2.423h.474c.553,0,1-.185,1-.631,0-.4-.289-.658-.921-.658a2.367,2.367,0,0,0-.554.053Z" transform="translate(-296.851 -266.576)"/>
    </g>
    <path id="Caminho_766" data-name="Caminho 766" d="M98.931,263.5a.935.935,0,1,0-.949-.936A.932.932,0,0,0,98.931,263.5Zm-25.677,21.74c3.713,4.612,11.568,2.315,16.605-.888.5.2,1.031.389,1.586.564a4.833,4.833,0,0,1-1.458.891,21.361,21.361,0,0,0,9.519,2.1c-2.112-.891-5.3-3.978-5.3-3.978a3.826,3.826,0,0,0,1.4-.891c-.611-.355-1.441-.768-2.41-1.363,4.439-4.5,9.439-13.545,4.333-18.562a7,7,0,0,0-.889-.739c-2.067,1.181-3.828,2.26-5.483,3.408.079.062.157.126.233.191,2.938,2.52,3.77,10.893.176,14.592-.347-.26-.7-.545-1.065-.858a4.636,4.636,0,0,0,1.4-.8s-1.261-.891-2.2-1.734a14.184,14.184,0,0,1-1.876-2.252s-1.876,1.126-3.05,1.687-3.467,1.362-3.467,1.362,1.5,1.641,5.807,3.19a5.4,5.4,0,0,1-1.968.75,20.426,20.426,0,0,0,2.106,1.247,9,9,0,0,1-10.576-3.581,54.394,54.394,0,0,0-3.681,5.336C73.086,285.027,73.168,285.135,73.254,285.241Zm2.206-18.233s14.152-9.559,21.188-4.63c1.092-.625,2.268-1.275,3.56-1.979V288.62H70.867c.744-1.347,1.448-2.568,2.141-3.7-3.916-5.454.519-15.123,11.779-18.753l-.424,1.922a24.091,24.091,0,0,0-5.391,3.232,12.214,12.214,0,0,0-3.891,5.017,12.854,12.854,0,0,0,1.608,3.245,70.258,70.258,0,0,1,6.129-6.72,61.038,61.038,0,0,1,8.346-7.078c-5.31-4.166-13.458,2.16-13.458,2.16Zm23.274-4.369h.188l.286.468h.182l-.307-.475a.28.28,0,0,0,.279-.3c0-.212-.126-.307-.38-.307H98.57v1.078h.163Zm-.564-.073a.76.76,0,1,1,.762.782A.756.756,0,0,1,98.17,262.565Zm.564-.066v-.334h.222c.113,0,.236.026.236.159,0,.166-.123.175-.262.175Z" transform="translate(0 0)" fill="#009f2c"/>
  </g>
</svg>
